<svg id="c91a160d-9ec0-4656-85f2-fb4f6356c78b" data-name="gun truc" xmlns="http://www.w3.org/2000/svg" viewBox="0 0 837.09 837.09"><title>icon</title><path d="M362.71,488.16c-19.85,0-22.55,38.79-30.67,39.69s-47.56-40-68.11-32.73" fill="none" stroke="#7daecd" stroke-linejoin="round" stroke-width="5"/><circle cx="317.09" cy="368.03" r="83.93" fill="none" stroke="#7daecd" stroke-linejoin="round" stroke-width="36"/><circle cx="317.09" cy="368.03" r="34.86" fill="#7daecd" stroke="#7daecd" stroke-linejoin="round" stroke-width="8"/><path d="M446.79,248.25c9.8,8.81,9.8,21.19,9.8,35.85" fill="none" stroke="#7daecd" stroke-linejoin="round" stroke-width="5"/><path d="M471.51,248.25c9.8,8.81,9.8,21.19,9.8,35.85" fill="none" stroke="#7daecd" stroke-linejoin="round" stroke-width="5"/><path d="M496.22,248.25c9.8,8.81,9.8,21.19,9.8,35.85" fill="none" stroke="#7daecd" stroke-linejoin="round" stroke-width="5"/><path d="M520.94,248.25c9.8,8.81,9.8,21.19,9.8,35.85" fill="none" stroke="#7daecd" stroke-linejoin="round" stroke-width="5"/><polygon points="592.41 487.81 628 518.53 803.55 518.53 803.55 487.81 592.41 487.81" fill="none" stroke="#7daecd" stroke-linejoin="round" stroke-width="5"/><path d="M309.76,248.25C223.39,248.25,88.12,341.77,18,436c0,40.35,83.11,146.36,112.45,152.87,24.45-21.19,96.14-101,186.59-101H803.55V248.25H309.76Zm7.33,233.67A113.89,113.89,0,1,1,431,368,113.89,113.89,0,0,1,317.09,481.92Zm479.46-163v75.83H469a7,7,0,0,1-4.46-12.4L543.65,317a39,39,0,0,1,24.84-8.93H796.55v10.83Z" fill="#7daecd" stroke="#7daecd" stroke-linecap="round" stroke-linejoin="round" stroke-width="4"/><path d="M803.55,316.61H815a4,4,0,0,1,4,4v61.7a4,4,0,0,1-4,4H803.55a0,0,0,0,1,0,0v-69.7A0,0,0,0,1,803.55,316.61Z" fill="none" stroke="#7daecd" stroke-linejoin="round" stroke-width="5"/><rect x="572.43" y="316.61" width="185.26" height="69.7" rx="14" ry="14" fill="#7daecd" stroke="#7daecd" stroke-linecap="round" stroke-linejoin="round" stroke-width="4"/></svg>