<svg id="964da9c3-93b0-4e3a-9ebc-c874b8b7d02e" data-name="truc à ecran" xmlns="http://www.w3.org/2000/svg" viewBox="0 0 585.09 585.09"><title>icon</title><rect x="428.54" y="47.87" width="85.35" height="471.15" fill="none" stroke="#7daecd" stroke-linejoin="round" stroke-width="5"/><rect x="513.9" y="59.25" width="48.94" height="459.77" fill="none" stroke="#7daecd" stroke-linejoin="round" stroke-width="5"/><polygon points="513.9 199.23 513.9 215.16 530.97 215.16 530.97 250.44 530.97 284.58 513.9 284.58 513.9 285.72 530.97 285.72 530.97 319.86 513.9 319.86 513.9 319.86 530.97 319.86 530.97 355.14 513.9 355.14 513.9 369.93 571.94 369.93 571.94 199.23 513.9 199.23" fill="#7daecd" stroke="#7daecd" stroke-linejoin="round" stroke-width="5"/><circle cx="471.22" cy="388.53" r="29.02" fill="none" stroke="#7daecd" stroke-linejoin="round" stroke-width="5"/><circle cx="471.22" cy="388.53" r="20.52" fill="#7daecd" stroke="#7daecd" stroke-linejoin="round" stroke-width="5"/><path d="M22.26,66.08V177.6H48.44l140,62.59,188.92-7.4,51.21,32.43V66.08H22.26Zm70.56,91.61a29,29,0,1,1,29-29A29,29,0,0,1,92.82,157.69ZM409.2,215.16H183.86V78.59H409.2V215.16Z" fill="#7daecd" stroke="#7daecd" stroke-linejoin="round" stroke-width="5"/></svg>