<svg id="6d8b2870-e14e-47bb-a512-a49c00a77ad7" data-name="truc" xmlns="http://www.w3.org/2000/svg" viewBox="0 0 579.17 626.75"><title>icon</title><path d="M515.18,275.36h17.39a3,3,0,0,1,3,3v92.33a3,3,0,0,1-3,3H515.18a0,0,0,0,1,0,0V275.36A0,0,0,0,1,515.18,275.36Z" fill="none" stroke="#7daecd" stroke-linejoin="round" stroke-width="5"/><path d="M535.57,291.63h10.84a3,3,0,0,1,3,3v59.8a3,3,0,0,1-3,3H535.57a0,0,0,0,1,0,0v-65.8A0,0,0,0,1,535.57,291.63Z" fill="#7daecd" stroke="#7daecd" stroke-linejoin="round" stroke-width="5"/><path d="M503.59,438.66V403.28H408.85V471a3,3,0,0,0,3,3h143.9a3,3,0,0,0,3-3V441.66a3,3,0,0,0-3-3H503.59Z" fill="#7daecd" stroke="#7daecd" stroke-linejoin="round" stroke-width="5"/><path d="M19.46,544.49l98.44,68.13a24,24,0,0,0,31.16-3.31l15-16,12.38-43,24.83-25.38,17-41.59,25.59-27.38,20.12-40.72L139.28,338.3,13.72,510.62A24,24,0,0,0,19.46,544.49Z" fill="#7daecd"/><polygon points="151.25 338.83 190.55 339.8 233.9 366.21 257.98 404.67 151.25 338.83" fill="#7daecd"/><path d="M388.67,403.28c-19.79,17.1-56.9,53-44.53,100-18.56,22.27-38.35-1.75-38.35-20.67s21-74.15,41.44-79.32h41.44Z" fill="none" stroke="#7daecd" stroke-linejoin="round" stroke-width="5"/><path d="M325.28,233.56L128.84,134.4a3.58,3.58,0,0,1-1.76-4.74l39.87-79a3.58,3.58,0,0,1,4.86-1.4L358.28,143.4Z" fill="#7daecd"/><polygon points="208.19 318.6 196.15 334.04 241.03 362.41 260.69 355.43 208.19 318.6" fill="none" stroke="#7daecd" stroke-linejoin="round" stroke-width="5"/><path d="M314.32,395.28V260.07H511V212.15a3,3,0,0,0-1.54-2.62L374.81,134.27a3,3,0,0,0-4.27,1.56l-1.6,4.28h0L329.76,244.5l-72.89-36.8L184.62,307l129.7,88.29h0Zm-55.61-58.37a41.42,41.42,0,1,1,41.42-41.42A41.42,41.42,0,0,1,258.71,336.91Z" fill="#7daecd"/><path d="M321.51,266.56h182.9a3,3,0,0,1,3,3V392.28a3,3,0,0,1-3,3H321.51a0,0,0,0,1,0,0V266.56A0,0,0,0,1,321.51,266.56Z" fill="#7daecd"/></svg>