<svg id="4ac25ed9-83c5-4b2b-8641-b63ab13c15bc" data-name="gun truc" xmlns="http://www.w3.org/2000/svg" viewBox="0 0 1076.02 1076.02"><title>icon</title><circle cx="299.04" cy="466.02" r="83.93" fill="none" stroke="#7daecd" stroke-linejoin="round" stroke-width="36"/><circle cx="299.04" cy="466.02" r="34.86" fill="#7daecd" stroke="#7daecd" stroke-linejoin="round" stroke-width="8"/><path d="M428.74,346.24c9.8,8.81,9.8,21.19,9.8,35.85" fill="none" stroke="#7daecd" stroke-linejoin="round" stroke-width="5"/><path d="M453.46,346.24c9.8,8.81,9.8,21.19,9.8,35.85" fill="none" stroke="#7daecd" stroke-linejoin="round" stroke-width="5"/><path d="M478.17,346.24C488,355,488,367.43,488,382.1" fill="none" stroke="#7daecd" stroke-linejoin="round" stroke-width="5"/><path d="M502.89,346.24c9.8,8.81,9.8,21.19,9.8,35.85" fill="none" stroke="#7daecd" stroke-linejoin="round" stroke-width="5"/><polygon points="574.36 585.8 609.95 616.52 785.5 616.52 785.5 585.8 574.36 585.8" fill="none" stroke="#7daecd" stroke-linejoin="round" stroke-width="5"/><path d="M291.71,346.24C205.34,346.24,70.07,439.76,0,534c0,40.35,83.11,146.36,112.45,152.87,24.45-21.19,96.14-101,186.59-101H785.5V346.24H291.71ZM299,579.91A113.89,113.89,0,1,1,412.93,466,113.89,113.89,0,0,1,299,579.91Zm479.46-163v75.83H451a7,7,0,0,1-4.46-12.4L525.6,415a39,39,0,0,1,24.84-8.93H778.5V416.9Z" fill="#7daecd" stroke="#7daecd" stroke-linecap="round" stroke-linejoin="round" stroke-width="4"/><path d="M785.5,414.6H797a4,4,0,0,1,4,4v61.7a4,4,0,0,1-4,4H785.5a0,0,0,0,1,0,0V414.6A0,0,0,0,1,785.5,414.6Z" fill="none" stroke="#7daecd" stroke-linejoin="round" stroke-width="5"/><path d="M351,585.8c-19.85,0-22.55,38.79-30.67,39.69s-47.56-40-68.11-32.73" fill="none" stroke="#7daecd" stroke-linejoin="round" stroke-width="5"/><path d="M785.5,385.41h53.92c35,0,69.79,23.05,17.46,44.77,35.84,4.93,203.3-8.87,219.15-39.19-28.25,7.58-170.22,6.85-170.22-16.2s142-21.78,170.22-14.2c-15.85-30.32-183.31-46.12-219.15-41.19,52.33,21.72,17.55,44.77-17.46,44.77H785.5" fill="none" stroke="#7daecd" stroke-linejoin="round" stroke-width="9"/><rect x="554.38" y="414.6" width="185.26" height="69.7" rx="14" ry="14" fill="#7daecd" stroke="#7daecd" stroke-linecap="round" stroke-linejoin="round" stroke-width="4"/></svg>