<svg id="6f351490-e87b-464b-b730-60dde96f56d9" data-name="corde truc" xmlns="http://www.w3.org/2000/svg" viewBox="0 0 634.12 634.12"><title>icon</title><circle cx="336.17" cy="315.93" r="108.38" fill="none" stroke="#7daecd" stroke-linejoin="round" stroke-width="42"/><circle cx="336.17" cy="315.93" r="76.02" fill="none" stroke="#7daecd" stroke-linejoin="round" stroke-width="5"/><circle cx="336.17" cy="315.93" r="65.96" fill="none" stroke="#7daecd" stroke-linejoin="round" stroke-width="5"/><path d="M164.14,305.51c5.71-84.66,80.55-151.67,172-151.67s166.33,67,172,151.67" fill="none" stroke="#7daecd" stroke-linejoin="round" stroke-width="5"/><path d="M515.5,305.49a13,13,0,0,0,12.91-14.58C516.14,195.68,434.75,122.1,336.17,122.1A194,194,0,0,0,143.8,290.92a13,13,0,0,0,12.91,14.58h27.07a13,13,0,0,0,12.85-11.09,141.2,141.2,0,0,1,279.09,0,13,13,0,0,0,12.85,11.09H515.5Z" fill="none" stroke="#7daecd" stroke-linejoin="round" stroke-width="5"/><rect x="212.22" y="16.15" width="67.92" height="123.11" rx="12" ry="12" transform="translate(-11.93 82.09) rotate(-18.49)" fill="none" stroke="#7daecd" stroke-linejoin="round" stroke-width="5"/><path d="M277.43,64.08c-8.3-.33-57.19,16.31-65.5,21.29" fill="none" stroke="#7daecd" stroke-linecap="round" stroke-linejoin="bevel" stroke-width="27"/><rect x="392.21" y="16.15" width="67.92" height="123.11" rx="12" ry="12" transform="translate(805.7 286.56) rotate(-161.51)" fill="none" stroke="#7daecd" stroke-linejoin="round" stroke-width="5"/><path d="M394.92,64.08c8.3-.33,57.19,16.31,65.5,21.29" fill="none" stroke="#7daecd" stroke-linecap="round" stroke-linejoin="bevel" stroke-width="27"/><path d="M277.43,428.08c-20.05-3.2-24.3,21.22-39.16,25.47s-59.72-9.5-79.63,12.74c-12,13.42-6.16,85.58-2.37,121.68,1.23,11.71,19.23,24.59,32.09,29.08s298.09-4,313.49-11.44,27.87-32.87,27.87-53.32c0-87.06-193.63-9.56-205.47-39.62-20.29-51.51,77.87-66.55,183.95-22,45.88,19.29-9.83-80.69-96-73.55" fill="none" stroke="#7daecd" stroke-linejoin="round" stroke-width="5"/><path d="M325.4,532.49C347.89,547.55,521,488,521,560.48c0,17-10.84,38.18-24.22,44.41s-262.35,15.65-272.42,9.53C204.18,602.18,302.12,516.89,325.4,532.49Z" fill="#7daecd" stroke="#7daecd" stroke-linejoin="round" stroke-width="5"/><circle cx="265.89" cy="505.65" r="20.61" fill="none" stroke="#7daecd" stroke-linejoin="round" stroke-width="5"/><ellipse cx="201.41" cy="520.27" rx="26.59" ry="39.89" fill="none" stroke="#7daecd" stroke-linejoin="round" stroke-width="5"/><path d="M135.62,595.39l22-2.66-6.18-60.49H135.62a8,8,0,0,0-8,8v47.15A8,8,0,0,0,135.62,595.39Z" fill="#7daecd" stroke="#7daecd" stroke-linejoin="round" stroke-width="5"/></svg>