<svg xmlns="http://www.w3.org/2000/svg" xmlns:xlink="http://www.w3.org/1999/xlink" version="1.1" x="0px" y="0px" viewBox="0 0 512 640" style="enable-background:new 0 0 512 512;" xml:space="preserve"><path d="M456.6,190.7H435v-14c0-2.2-1.8-4-4-4h-37.6v-13c0-2.2-1.8-4-4-4H262c-2.2,0-4,1.8-4,4s1.8,4,4,4h123.3v38.5h-10.1  c-2.2,0-4,1.8-4,4s1.8,4,4,4h10.1v22h-140v-22h109.3c2.2,0,4-1.8,4-4s-1.8-4-4-4H241.4c-2.2,0-4,1.8-4,4v30c0,2.2,1.8,4,4,4h144v8.5  H77.2v-85h164.2c2.2,0,4-1.8,4-4s-1.8-4-4-4h-10.5l3.4-17.5h60.2h0h0c0.3,0,0.5,0,0.8-0.1c0.1,0,0.2-0.1,0.3-0.1  c0.1,0,0.2-0.1,0.4-0.1l20-7.7c3.8-1.5,6.2-5,6.2-9.1s-2.5-7.6-6.2-9.1l-20-7.7c-0.2-0.1-0.4-0.1-0.6-0.2c0,0-0.1,0-0.1,0  c-0.2,0-0.5-0.1-0.7-0.1l0,0H150c-0.2,0-0.4,0-0.5,0.1c-0.1,0-0.1,0-0.2,0l-0.1,0c0,0,0,0,0,0l-18.4,3.5c-1.9,0.4-3.3,2-3.3,3.9v19  c0,1.9,1.4,3.6,3.3,3.9l18.4,3.5c0,0,0,0,0,0l0.1,0c0.2,0,0.5,0.1,0.7,0.1h16.7c2.2,0,4-1.8,4-4s-1.8-4-4-4H154v-18h136.5v18H187.3  c-2.2,0-4,1.8-4,4s1.8,4,4,4h14.3l-3.4,17.5h-125c-2.2,0-4,1.8-4,4V173c-16.5,2-29.3,16.1-29.3,33.1v0.3c0,17,12.8,31.1,29.3,33.1  v13.2c0,2.2,1.8,4,4,4h68.3l-3.5,19.1c-0.4,2.2,1,4.3,3.2,4.7c2.2,0.4,4.3-1,4.7-3.2l3.8-20.5h67.6l-1.3,7.1h-27.4  c-1.9,0-3.5,1.3-3.9,3.2l-24.5,116.9c-0.2,1.2,0.1,2.4,0.8,3.4c0.8,0.9,1.9,1.5,3.1,1.5c0,0,0,0,0.1,0l28.8-0.4  c-5.1,15.8-19.8,26.9-36.8,26.9h-35.3L142.1,298c0.4-2.2-1-4.3-3.2-4.7c-2.2-0.4-4.3,1-4.7,3.2l-22.3,122c-0.2,1.2,0.1,2.4,0.9,3.3  c0.8,0.9,1.9,1.4,3.1,1.4H156c22.5,0,41.8-16.1,45.9-38.2c0,0,0,0,0,0c0,0,0,0,0,0l15.5-84.7h15.9c0,6.5,5.3,11.8,11.8,11.8  s11.8-5.3,11.8-11.8v-26.7c0-6.5-5.3-11.8-11.8-11.8s-11.8,5.3-11.8,11.8h-11.1l3.1-16.8h164.1c2.2,0,4-1.8,4-4v-13H431  c2.2,0,4-1.8,4-4v-14h21.7c8.5,0,15.5-7,15.5-15.5S465.2,190.7,456.6,190.7z M135.5,115l10.5-2v16.3l-10.5-2V115z M314.2,121.2  c0,0.4-0.1,1.2-1.1,1.6l-14.6,5.6V114l14.6,5.6C314.1,120,314.2,120.8,314.2,121.2z M209.8,138.2h16.3l-3.4,17.5h-16.3L209.8,138.2z   M47.9,206.4v-0.3c0-12.6,9.3-23.1,21.3-25v50.4C57.1,229.5,47.9,219,47.9,206.4z M191.7,271.9h22.7l-0.9,5c0,0,0,0,0,0l-3.4,18.7  c0,0,0,0,0,0l-15.5,84.8l-25.7,0.4L191.7,271.9z M237.3,281.6c2.2,0,4-1.8,4-4v-4c0-2.1,1.7-3.8,3.8-3.8s3.8,1.7,3.8,3.8v26.7  c0,2.1-1.7,3.8-3.8,3.8s-3.8-1.7-3.8-3.8v-4c0-2.2-1.8-4-4-4h-18.5l1.9-10.7H237.3z M427,231.7h-33.6v-25.5v-25.5H427v14v23V231.7z   M435,198.7h17.7v15H435V198.7z M460.6,212.6v-12.7c2.1,1.3,3.5,3.7,3.5,6.3S462.7,211.2,460.6,212.6z"/><path d="M128.6,234.7c-15.9,0-28.7-12.9-28.7-28.7c0-2.2-1.8-4-4-4s-4,1.8-4,4c0,20.3,16.5,36.7,36.7,36.7  c20.3,0,36.7-16.5,36.7-36.7s-16.5-36.7-36.7-36.7c-11.1,0-21.5,4.9-28.5,13.6c-1.4,1.7-1.1,4.2,0.6,5.6c1.7,1.4,4.2,1.1,5.6-0.6  c5.5-6.7,13.6-10.6,22.3-10.6c15.9,0,28.7,12.9,28.7,28.7S144.5,234.7,128.6,234.7z"/><path d="M332.3,121c0,2.2,1.8,4,4,4h15.9c2.2,0,4-1.8,4-4s-1.8-4-4-4h-15.9C334.1,117,332.3,118.8,332.3,121z"/><path d="M330.7,108c1,0,2-0.4,2.8-1.2l11.3-11.3c1.6-1.6,1.6-4.1,0-5.7c-1.6-1.6-4.1-1.6-5.7,0l-11.3,11.3c-1.6,1.6-1.6,4.1,0,5.7  C328.6,107.7,329.7,108,330.7,108z"/><path d="M339.1,149.1c0.8,0.8,1.8,1.2,2.8,1.2s2-0.4,2.8-1.2c1.6-1.6,1.6-4.1,0-5.7l-11.3-11.3c-1.6-1.6-4.1-1.6-5.7,0  c-1.6,1.6-1.6,4.1,0,5.7L339.1,149.1z"/><text x="0" y="527" fill="#000000" font-size="5px" font-weight="bold" font-family="'Helvetica Neue', Helvetica, Arial-Unicode, Arial, Sans-serif">Created by Chanut is Industries</text><text x="0" y="532" fill="#000000" font-size="5px" font-weight="bold" font-family="'Helvetica Neue', Helvetica, Arial-Unicode, Arial, Sans-serif">from the Noun Project</text></svg>