<svg xmlns="http://www.w3.org/2000/svg" xmlns:xlink="http://www.w3.org/1999/xlink" version="1.1" x="0px" y="0px" viewBox="0 0 200 250" enable-background="new 0 0 200 200" xml:space="preserve"><g><path d="M66.5,140.3H138c0,0,0,0,0,0c0.3,0,0.5-0.2,0.5-0.5c0-0.3-0.2-0.5-0.5-0.5l-20.2-3.3l19.1-6.3c0.3-0.1,0.4-0.4,0.4-0.6   s-0.3-0.5-0.6-0.4l-23,3.2l16.5-9.1c0.2-0.1,0.3-0.4,0.2-0.7c-0.1-0.3-0.4-0.4-0.7-0.3l-23.3,8.3l8.6-13.8c0.1-0.2,0.1-0.5-0.1-0.7   c-0.2-0.2-0.5-0.1-0.7,0.1l-10.4,11.8V47.2h-4.1v80.2l-9.6-11.8c-0.2-0.2-0.5-0.3-0.7-0.1c-0.2,0.2-0.3,0.5-0.1,0.7l7.5,13.8   l-22.2-8.3c-0.3-0.1-0.6,0-0.7,0.3c-0.1,0.3,0,0.6,0.2,0.7l16.5,9.1l-23-3.2c-0.3,0-0.5,0.1-0.6,0.4c-0.1,0.3,0.1,0.5,0.4,0.6   l19.1,6.3l-20.2,3.3c-0.3,0-0.5,0.3-0.4,0.6C66,140.1,66.2,140.3,66.5,140.3z"/><path d="M147.8,142.9H56.2c-0.9,0-1.6,0.7-1.6,1.6c0,0.9,0.7,1.6,1.6,1.6h91.6c0.9,0,1.6-0.7,1.6-1.6   C149.4,143.7,148.7,142.9,147.8,142.9z"/></g><text x="0" y="215" fill="#000000" font-size="5px" font-weight="bold" font-family="'Helvetica Neue', Helvetica, Arial-Unicode, Arial, Sans-serif">Created by Bryan Allen</text><text x="0" y="220" fill="#000000" font-size="5px" font-weight="bold" font-family="'Helvetica Neue', Helvetica, Arial-Unicode, Arial, Sans-serif">from the Noun Project</text></svg>