<svg xmlns:x="http://ns.adobe.com/Extensibility/1.0/" xmlns:i="http://ns.adobe.com/AdobeIllustrator/10.0/" xmlns:graph="http://ns.adobe.com/Graphs/1.0/" xmlns="http://www.w3.org/2000/svg" xmlns:xlink="http://www.w3.org/1999/xlink" xmlns:a="http://ns.adobe.com/AdobeSVGViewerExtensions/3.0/" version="1.1" x="0px" y="0px" viewBox="0 0 100 125" enable-background="new 0 0 100 100" xml:space="preserve"><g><path d="M87.5,19.7H60.3c0.8-1.2,1.3-2.7,1.3-4.3c0-4.3-3.5-7.8-7.8-7.8s-7.8,3.5-7.8,7.8c0,1.6,0.5,3,1.3,4.3H25.7   c-0.9-3.3-3.9-5.8-7.5-5.8c-4.3,0-7.8,3.5-7.8,7.8s3.5,7.8,7.8,7.8c3.6,0,6.6-2.4,7.5-5.8h17.6v5.2h-2c-0.2,0-0.4,0-0.6,0.1   c-0.4,0-0.8,0.1-1.2,0.4c-9.1,6.4-14.7,18.6-14.7,31.7c0,12.5,5,23.9,13.4,30.5c0.4,0.4,0.9,0.7,1.5,0.7c0,0,0,0,0,0l28.4-0.1   c0.7,0,1.3-0.4,1.7-0.9c8.2-6.7,13-18.1,13-30.4c0-12.7-5.4-24.7-14-31.2c-0.2-0.2-0.4-0.3-0.7-0.3c-0.3-0.2-0.7-0.4-1.2-0.4h-2.6   v-5.2h23.1c1.1,0,2-0.9,2-2S88.6,19.7,87.5,19.7z M53.9,11.7c2.1,0,3.8,1.7,3.8,3.8s-1.7,3.8-3.8,3.8s-3.8-1.7-3.8-3.8   S51.8,11.7,53.9,11.7z M58.8,32.9c2,4.3,3.6,8.4,4.7,12.4H44.5c1.1-4,2.7-8.1,4.7-12.4c0,0,0,0,0,0L58.8,32.9   C58.8,32.9,58.8,32.9,58.8,32.9z M77.2,49.3c1.1,3.6,1.7,7.5,1.7,11.6c0,3.9-0.5,7.6-1.5,11.2c-0.1,0-0.2,0-0.3,0h-8.5   c1.6-7.6,1.6-15,0.1-22.7H77C77.1,49.3,77.2,49.3,77.2,49.3z M64.5,72h-21c-1.7-7.7-1.7-15-0.1-22.7h21.1   C66.2,57,66.2,64.3,64.5,72z M58.7,88.2l-9.5,0c0-0.1,0-0.1-0.1-0.2c-2-4.2-3.5-8.2-4.7-12.1h18.9c-1.1,3.9-2.7,7.9-4.7,12.1   C58.8,88.1,58.8,88.2,58.7,88.2z M30.3,72c-1-3.4-1.5-7.1-1.5-10.9c0-4.1,0.6-8.1,1.7-11.8h8.8c-1.5,7.6-1.5,15,0.1,22.7h-8.9   C30.5,72,30.4,72,30.3,72z M41.5,32.9h3.3c-1.9,4.3-3.4,8.4-4.5,12.4H32C34.2,40.2,37.5,35.9,41.5,32.9z M31.7,76h8.7   c1.1,4,2.6,8.1,4.5,12.3l-4.4,0C36.7,85.2,33.7,80.9,31.7,76z M67.2,88.2l-4.1,0C65,84,66.5,79.9,67.6,76H76   C74,80.9,71,85.1,67.2,88.2z M75.8,45.3h-8.1c-1.1-4-2.6-8.1-4.5-12.4h3.3C70.5,35.9,73.6,40.2,75.8,45.3z M60.4,24v3.9h-13V24   H60.4z M18.3,25.5c-2.1,0-3.8-1.7-3.8-3.8s1.7-3.8,3.8-3.8s3.8,1.7,3.8,3.8S20.3,25.5,18.3,25.5z"/></g><text x="0" y="115" fill="#000000" font-size="5px" font-weight="bold" font-family="'Helvetica Neue', Helvetica, Arial-Unicode, Arial, Sans-serif">Created by Wira</text><text x="0" y="120" fill="#000000" font-size="5px" font-weight="bold" font-family="'Helvetica Neue', Helvetica, Arial-Unicode, Arial, Sans-serif">from the Noun Project</text></svg>