<?xml version="1.0" encoding="utf-8"?>
<!-- Generator: Adobe Illustrator 19.2.1, SVG Export Plug-In . SVG Version: 6.00 Build 0)  -->
<svg version="1.1" id="Calque_1" xmlns="http://www.w3.org/2000/svg" xmlns:xlink="http://www.w3.org/1999/xlink" x="0px" y="0px"
	 viewBox="0 0 84.3 84.3" style="enable-background:new 0 0 84.3 84.3;" xml:space="preserve">
<style type="text/css">
	.st0{fill:none;}
</style>
<g>
	<g>
		<path d="M24.1,28.6c-0.6,1.1-0.9,2.2-1.1,3.2c-9,4.5-16.1,12-20.1,21.2c-1.1,0.7-1.8,1.3-2.3,1.8C4.9,36.3,20.6,29.8,24.1,28.6
			 M24.7,28.1c0,0-20.2,5.6-24.7,28.1c0,0,0.7-1.5,3.2-2.9c4-9.2,11.1-16.8,20.1-21.2C23.4,30.9,23.9,29.6,24.7,28.1L24.7,28.1z"/>
		<path d="M60.2,28.6c3.5,1.2,19.1,7.7,23.5,26.3c-0.5-0.5-1.2-1.2-2.3-1.8c-4-9.2-11.1-16.7-20.1-21.2
			C61.1,30.8,60.8,29.8,60.2,28.6 M59.6,28.1c0.8,1.5,1.3,2.8,1.4,3.9c9,4.5,16.1,12,20.1,21.2c2.4,1.4,3.2,2.9,3.2,2.9
			C79.8,33.7,59.6,28.1,59.6,28.1L59.6,28.1z"/>
		<circle class="st0" cx="50.5" cy="43.1" r="1.3"/>
		<path class="st0" d="M46.3,44.2c0.2,0.1,0.4,0.2,0.6,0.2c0.7,0,1.3-0.6,1.3-1.3s-0.6-1.3-1.3-1.3c-0.2,0-0.4,0.1-0.6,0.2
			c0.1,0.3,0.1,0.7,0.1,1.1C46.4,43.4,46.4,43.8,46.3,44.2z"/>
		<path class="st0" d="M38,42c-0.2-0.1-0.4-0.2-0.6-0.2c-0.7,0-1.3,0.6-1.3,1.3s0.6,1.3,1.3,1.3c0.2,0,0.4-0.1,0.6-0.2
			c-0.1-0.4-0.2-0.7-0.2-1.1C37.9,42.7,37.9,42.3,38,42z"/>
		<circle class="st0" cx="54.2" cy="42.1" r="1.3"/>
		<circle class="st0" cx="33.8" cy="43.1" r="1.3"/>
		<circle class="st0" cx="30.1" cy="42.1" r="1.3"/>
		<path d="M42.2,39l2.1,0.6c0,0,0.1-0.1,0.1-0.2c-0.7-0.4-1.4-0.6-2.3-0.6c-0.8,0-1.6,0.2-2.2,0.6c0.1,0.1,0.1,0.2,0.1,0.2L42.2,39z
			"/>
		<path d="M45.6,43.1c0,0.5,0.3,0.9,0.7,1.1c0.1-0.4,0.2-0.7,0.2-1.1c0-0.4-0.1-0.7-0.1-1.1C45.9,42.2,45.6,42.6,45.6,43.1z"/>
		<path d="M38.7,43.1c0-0.5-0.3-0.9-0.7-1.1c-0.1,0.3-0.1,0.7-0.1,1.1c0,0.4,0.1,0.8,0.2,1.1C38.4,43.9,38.7,43.5,38.7,43.1z"/>
		<path d="M40.3,46.9c0.6,0.3,1.2,0.4,1.9,0.4c0,0,0,0,0.1,0C41.6,47,40.9,46.9,40.3,46.9z"/>
		<path d="M42.2,47.3c0.6,0,1.3-0.2,1.8-0.4C43.4,46.9,42.8,47,42.2,47.3z"/>
		<path d="M46.6,38.9c-1.9-1.7-2.3-1.3-2.3-1.3c0.5,0.7,0.3,1.5,0.1,1.9c0.9,0.6,1.6,1.5,1.9,2.5c0.2-0.1,0.4-0.2,0.6-0.2
			c0.7,0,1.3,0.6,1.3,1.3s-0.6,1.3-1.3,1.3c-0.2,0-0.4-0.1-0.6-0.2c-0.3,1.2-1.2,2.2-2.3,2.7c3.1,0,6,3.6,6,3.6c0.9-8.1,8-4.5,8-4.5
			c12.6-5.3,16.6,5,16.6,5c2.9,0.5,5,1.4,6.5,2.3C77.2,44.1,70,36.5,61,32.1C62.3,40.4,48.9,40.8,46.6,38.9z M50.5,44.3
			c-0.7,0-1.3-0.6-1.3-1.3s0.6-1.3,1.3-1.3s1.3,0.6,1.3,1.3S51.2,44.3,50.5,44.3z M54.2,43.4c-0.7,0-1.3-0.6-1.3-1.3
			s0.6-1.3,1.3-1.3s1.3,0.6,1.3,1.3S54.9,43.4,54.2,43.4z"/>
		<polygon points="42.2,47.3 42.2,47.3 42.2,47.3 		"/>
		<path d="M26.3,46c0,0,7.2-3.6,8,4.5c0,0,2.9-3.5,6-3.6c-1.1-0.5-1.9-1.5-2.3-2.7c-0.2,0.1-0.4,0.2-0.6,0.2c-0.7,0-1.3-0.6-1.3-1.3
			s0.6-1.3,1.3-1.3c0.2,0,0.4,0.1,0.6,0.2c0.3-1.1,1-2,1.9-2.6c-0.2-0.4-0.5-1.2,0.1-1.9c0,0-0.4-0.3-2.3,1.3
			c-2.3,2-15.7,1.5-14.4-6.8c-9,4.5-16.1,12-20.1,21.2c1.5-0.9,3.6-1.8,6.5-2.3C9.7,51,13.7,40.7,26.3,46z M33.8,41.8
			c0.7,0,1.3,0.6,1.3,1.3s-0.6,1.3-1.3,1.3s-1.3-0.6-1.3-1.3S33.1,41.8,33.8,41.8z M30.1,40.9c0.7,0,1.3,0.6,1.3,1.3
			s-0.6,1.3-1.3,1.3s-1.3-0.6-1.3-1.3S29.4,40.9,30.1,40.9z"/>
		<path d="M46.3,44.2c-0.4-0.2-0.7-0.6-0.7-1.1c0-0.5,0.3-0.9,0.7-1.1c-0.3-1.1-1-2-1.9-2.5c-0.1,0.1-0.1,0.2-0.1,0.2L42.2,39
			l-2.1,0.6c0,0-0.1-0.1-0.1-0.2C39,40,38.3,40.9,38,42c0.4,0.2,0.7,0.6,0.7,1.1c0,0.5-0.3,0.9-0.7,1.1c0.3,1.2,1.2,2.1,2.3,2.6
			c0.6,0,1.3,0.3,1.9,0.3c0,0,0,0,0,0c0.6,0,1.2-0.4,1.8-0.3C45.1,46.3,45.9,45.4,46.3,44.2z"/>
	</g>
	<circle cx="42.1" cy="43.1" r="4.5"/>
</g>
</svg>
