<svg xmlns="http://www.w3.org/2000/svg" xmlns:xlink="http://www.w3.org/1999/xlink" xml:space="preserve" style="shape-rendering:geometricPrecision;text-rendering:geometricPrecision;image-rendering:optimizeQuality;" viewBox="0 0 6.82666 8.533325000000001" x="0px" y="0px" fill-rule="evenodd" clip-rule="evenodd"><defs><style type="text/css">
   
    .fil1 {fill:none}
    .fil0 {fill:black;fill-rule:nonzero}
   
  </style></defs><g><path class="fil0" d="M2.26818 3.58162c0.0372756,-0.0236417 0.0483307,-0.0730354 0.024689,-0.110311 -0.0236417,-0.0372756 -0.0730354,-0.0483307 -0.110311,-0.024689l-1.42917 0.909134 0.042811 0.0675 -0.042937 -0.0675c-0.0372756,0.0237126 -0.0482756,0.0731614 -0.024563,0.110437l0.00113386 0.00173228 0.587803 1.01811 -0.000165354 9.44882e-005c0.0220906,0.0382638 0.0710197,0.051374 0.109283,0.0292835 0.0099252,-0.00572835 0.0181535,-0.0132717 0.0245157,-0.0219567l1.02744 -1.18743 -0.060311 -0.052189 0.0604961 0.0523465c0.0125,-0.0144488 0.0189055,-0.0320945 0.0194567,-0.049811l0.027626 -0.353669c0.00327559,-0.0440079 -0.0297441,-0.0823504 -0.073752,-0.085626 -0.0440079,-0.00327559 -0.0823504,0.0297441 -0.085626,0.073752l-0.0258425 0.330846 -0.940933 1.08746 -0.496217 -0.859469 1.36457 -0.868043z"/><path class="fil0" d="M2.4777 3.79187l1.03544 -0.51976c0.000531496,-0.000267717 0.00253543,-0.00140551 0.00593701,-0.00337008 0.0301811,-0.0174252 0.0501772,-0.0467008 0.0587677,-0.0797402 0.00908268,-0.0349409 0.00576378,-0.0735906 -0.0112126,-0.107402 -0.000503937,-0.00100394 -0.00188189,-0.00345669 -0.00411417,-0.00732283l-0.104 -0.180126 -1.12433 0.649134 0.14352 0.248587zm1.10669 -0.377256l-1.09583 0.550075c-0.000748031,0.000464567 -0.0015,0.00092126 -0.00226772,0.00136614 -0.0382638,0.0220906 -0.0871929,0.00898031 -0.109283,-0.0292835l0.0692835 -0.04 -0.069063 0.039689 -0.217126 -0.376079c-0.00141339,-0.00200394 -0.00275984,-0.00408661 -0.00401181,-0.00625591 -0.0220906,-0.0382638 -0.00898031,-0.0871929 0.0292835,-0.109283l0.04 0.0692835 -0.039689 -0.069063 1.25587 -0.725075c0.00200394,-0.00141339 0.00408661,-0.00275984 0.00625591,-0.00401181 0.0382638,-0.0220906 0.0871929,-0.00898031 0.109283,0.0292835l-0.000165354 9.44882e-005 0.143717 0.248921c0.00220866,0.00382677 0.00505118,0.00919685 0.00849213,0.0160709 0.0346732,0.0690591 0.0415276,0.14772 0.0230866,0.218654 -0.0189409,0.0728425 -0.064185,0.138051 -0.133146,0.177866 -0.00330709,0.00190945 -0.00818898,0.00449213 -0.014685,0.00774803z"/><path class="fil0" d="M3.4478 2.71619c-0.0381417,0.0220906 -0.0511535,0.0709213 -0.029063,0.109063 0.0220906,0.0381417 0.0709213,0.0511535 0.109063,0.029063l1.83827 -1.06133 9.44882e-005 0.000165354c0.00216929,-0.00125197 0.00425197,-0.00259843 0.00625591,-0.00401181l0.191008 -0.11028 0.0837402 0.145043 -2.03887 1.17715c-0.0381417,0.0220906 -0.0511535,0.0709213 -0.029063,0.109063 0.0220906,0.0381417 0.0709213,0.0511535 0.109063,0.029063l2.10307 -1.21421c0.00162598,-0.000799213 0.00323622,-0.00164961 0.00482677,-0.00256693 0.0382638,-0.0220906 0.051374,-0.0710197 0.0292835,-0.109283l-0.0692835 0.04 0.069063 -0.04 -0.160685 -0.278315c-0.000799213,-0.00162205 -0.00164961,-0.00323622 -0.00256693,-0.00482677 -0.0220906,-0.0382638 -0.0710197,-0.051374 -0.109283,-0.0292835l0.000173228 0.000299213 -0.26013 0.150185c-0.00222835,0.00102756 -0.00443307,0.00215748 -0.00659843,0.00340945l0.04 0.0692835 -0.04 -0.069063 -1.83837 1.06138z"/><path class="fil0" d="M5.29703 1.4669c-0.0220906,-0.0381417 -0.0709213,-0.0511535 -0.109063,-0.029063 -0.0381417,0.0220906 -0.0511535,0.0709213 -0.029063,0.109063l0.118504 0.205252c0.0220906,0.0381417 0.0709213,0.0511535 0.109063,0.029063 0.0381417,-0.0220906 0.0511535,-0.0709213 0.029063,-0.109063l-0.118504 -0.205252z"/><path class="fil0" d="M1.13543 4.18663c-0.0312362,-0.0310669 -0.081748,-0.0309252 -0.112815,0.000311024 -0.0310669,0.0312362 -0.0309252,0.081748 0.000311024,0.112815 0.0779449,0.0771772 0.156488,0.167461 0.233004,0.268819 0.074685,0.0989409 0.146476,0.206921 0.212878,0.321933l0.069063 -0.039689 -0.0692835 0.04c0.000909449,0.0015748 0.00186614,0.00309843 0.0028622,0.00458661 0.0225354,0.0392008 0.044878,0.0801378 0.0669528,0.122618 0.0230591,0.0443622 0.0440709,0.0870748 0.0630354,0.128024 0.0184646,0.0400394 0.0658976,0.0575276 0.105937,0.039063 0.0400394,-0.0184646 0.0575276,-0.0658976 0.039063,-0.105937 -0.0213819,-0.0461693 -0.0434606,-0.0912205 -0.0661614,-0.134898 -0.0213346,-0.0410551 -0.0448386,-0.0839409 -0.0705276,-0.128579 -0.00080315,-0.00164173 -0.00166535,-0.00327165 -0.00259449,-0.00487795l-0.000165354 9.44882e-005 -5.51181e-005 -9.44882e-005 -0.000133858 7.87402e-005c-0.0710236,-0.123 -0.146291,-0.236476 -0.223366,-0.338575 -0.0805748,-0.106732 -0.164197,-0.202713 -0.248004,-0.285693z"/><path class="fil0" d="M2.83481 3.64713c-0.0396929,-0.0189803 -0.0872677,-0.00219291 -0.106248,0.0375 -0.0189803,0.0396929 -0.00219291,0.0872677 0.0375,0.106248 0.098878,0.0474449 0.135335,0.118283 0.130685,0.187969 -0.00265748,0.0398583 -0.0175866,0.0804921 -0.0413661,0.117618 -0.024815,0.0387402 -0.0588189,0.0730787 -0.0984449,0.0985827 -0.0833425,0.0536417 -0.192555,0.0667638 -0.291362,-0.0055748 -0.0355512,-0.0260591 -0.0855039,-0.0183661 -0.111563,0.017185 -0.0260591,0.0355512 -0.0183661,0.0855039 0.017185,0.111563 0.161185,0.118 0.33785,0.0975433 0.471992,0.0112047 0.0590512,-0.0380039 0.109669,-0.0891024 0.146571,-0.146709 0.037937,-0.0592244 0.0618701,-0.125886 0.0663661,-0.193248 0.00877165,-0.131374 -0.0527559,-0.261457 -0.221315,-0.342339z"/><path class="fil0" d="M2.49066 3.83052c-0.0365866,-0.0245039 -0.086122,-0.0147087 -0.110626,0.021878 -0.0245039,0.0365866 -0.0147087,0.086122 0.021878,0.110626l0.199449 0.133091c0.0365866,0.0245039 0.086122,0.0147087 0.110626,-0.021878 0.0245039,-0.0365866 0.0147087,-0.086122 -0.021878,-0.110626l-0.199449 -0.133091z"/></g><rect class="fil1" width="6.82666" height="6.82666"/><text x="0" y="21.82666" fill="#000000" font-size="5px" font-weight="bold" font-family="'Helvetica Neue', Helvetica, Arial-Unicode, Arial, Sans-serif">Created by IYIKON</text><text x="0" y="26.82666" fill="#000000" font-size="5px" font-weight="bold" font-family="'Helvetica Neue', Helvetica, Arial-Unicode, Arial, Sans-serif">from the Noun Project</text></svg>