<svg xmlns="http://www.w3.org/2000/svg" xmlns:xlink="http://www.w3.org/1999/xlink" version="1.1" x="0px" y="0px" viewBox="0 0 100 125" style="enable-background:new 0 0 100 100;" xml:space="preserve"><path d="M95.8,2.5c-1.6,0.3-16.2,3-19.9,6.8l-5.9,5.9H57.8c-0.4,0-0.8,0.2-1,0.4L44,28.4c-0.4,0.4-0.5,1.1-0.3,1.6  c0.2,0.5,0.8,0.9,1.4,0.9h9.2L38.1,47.1H13.2c-0.4,0-0.8,0.2-1,0.4l-9.3,9.3c-0.6,0.6-0.6,1.5,0,2.1l3.5,3.5c0.3,0.3,0.7,0.4,1,0.4  l17.9,0l11.9,11.9l0,17.9c0,0.4,0.2,0.8,0.4,1l3.5,3.5c0.6,0.6,1.5,0.6,2.1,0l9.3-9.3c0.3-0.3,0.4-0.7,0.4-1V61.9l16.2-16.2l0,9.2  c0,0.6,0.4,1.1,0.9,1.4s1.2,0.1,1.6-0.3l12.7-12.7c0.3-0.3,0.4-0.7,0.4-1V30.1l5.9-5.9c3.7-3.7,6.5-18.2,6.8-19.9  c0.1-0.5-0.1-1-0.4-1.3S96.2,2.4,95.8,2.5z M58.4,18.2l8.6,0L57.2,28l-8.6,0L58.4,18.2z M8.1,59.8l-2-2l7.8-7.8l21.3,0l-5.5,5.5  l-4.3,4.3L8.1,59.8z M38.7,72L28,61.3l2.6-2.6l10.7,10.7L38.7,72z M50,86.2l-7.8,7.8l-2-2l0-17.3l4.3-4.3l5.5-5.5V86.2z M81.8,41.6  L72,51.4l0-8.6l9.8-9.8V41.6z M88.6,22l-6.4,6.4L69.5,41.2L50.4,60.3l-7,7L32.7,56.6l26.1-26.1l0,0L78,11.4  c2.3-2.3,11.1-4.5,16.2-5.5C93.1,10.9,90.9,19.8,88.6,22z"/><text x="0" y="115" fill="#000000" font-size="5px" font-weight="bold" font-family="'Helvetica Neue', Helvetica, Arial-Unicode, Arial, Sans-serif">Created by Juan Manuel Corredor</text><text x="0" y="120" fill="#000000" font-size="5px" font-weight="bold" font-family="'Helvetica Neue', Helvetica, Arial-Unicode, Arial, Sans-serif">from the Noun Project</text></svg>