<svg xmlns="http://www.w3.org/2000/svg" viewBox="0 0 64 80" x="0px" y="0px"><title>gun-gun toy-toy-gunshot-weapon gun</title><path d="M61,16H58V15a1,1,0,0,0-1-1H54V11a1,1,0,0,0-1-1H49a1,1,0,0,0-1,1v3H3a1,1,0,0,0-1,1V27a1,1,0,0,0,1,1H4v5a1,1,0,0,0,1,1H7.78L4,52.8a1,1,0,0,0,.21.83A1,1,0,0,0,5,54H17a1,1,0,0,0,1-.8L21.82,34H24v5a3,3,0,0,0,6,0V34H53a1,1,0,0,0,1-1V28h3a1,1,0,0,0,1-1V23h3a1,1,0,0,0,1-1V17A1,1,0,0,0,61,16ZM50,12h2v2H50ZM39,16v4H25V16ZM16.18,52h-10l3.6-18h10ZM28,39a1,1,0,0,1-2,0V34h2Zm24-7H6V28H52Zm4-6H50V18H48v8H4V16H6v4H8V16h2v4h2V16H23v5a1,1,0,0,0,1,1H40a1,1,0,0,0,1-1V16H56Zm4-5H58V18h2Z"/><rect x="6" y="22" width="2" height="2"/><rect x="10" y="22" width="2" height="2"/><path d="M13,46a3,3,0,1,0-3-3A3,3,0,0,0,13,46Zm0-4a1,1,0,1,1-1,1A1,1,0,0,1,13,42Z"/><text x="0" y="79" fill="#000000" font-size="5px" font-weight="bold" font-family="'Helvetica Neue', Helvetica, Arial-Unicode, Arial, Sans-serif">Created by Smalllike</text><text x="0" y="84" fill="#000000" font-size="5px" font-weight="bold" font-family="'Helvetica Neue', Helvetica, Arial-Unicode, Arial, Sans-serif">from the Noun Project</text></svg>