<svg xmlns="http://www.w3.org/2000/svg" xmlns:xlink="http://www.w3.org/1999/xlink" version="1.1" x="0px" y="0px" viewBox="0 0 100 125" enable-background="new 0 0 100 100" xml:space="preserve"><g><g><path fill="#000000" d="M44.454,40.741l-2.135-2.135c-0.299-0.299-0.785-0.298-1.084,0l-1.848,1.848l3.219,3.219l1.848-1.848    C44.753,41.526,44.753,41.041,44.454,40.741z"/><path fill="#000000" d="M35.868,49.968c0.299,0.299,0.783,0.299,1.082,0l4.845-4.844c0.22-0.22,0.278-0.542,0.175-0.814    l0.047-0.048l-3.219-3.219l-1.846-1.847c-0.301-0.3-0.785-0.3-1.085,0l-4.845,4.844c-0.299,0.299-0.299,0.784,0.002,1.084    l0.438,0.444l3.835,3.829L35.868,49.968z"/><path fill="#000000" d="M85.241,10.686l-0.207,0.206l-0.748-0.748c-0.406-0.407-1.066-0.407-1.475,0l-1.107,1.107l-1.17-1.174    c-0.234-0.234-0.523-0.298-0.851-0.345l-2.19-0.234c-0.303-0.001-0.604,0.114-0.836,0.345c-0.459,0.459-0.459,1.205,0.008,1.673    l2.028,2.028c-1.136,0.216-2.244,0.686-2.782,1.223l-8.24,8.241l-4.707,4.707l-8.24,8.241c-0.732,0.732-1.339,2.526-1.352,4.005    l-0.002,0.194l-0.711,0.71l-1.227-1.228c-0.733-0.733-1.922-0.733-2.654,0L35.161,53.254l-1.691-1.691l1.284-1.521l-3.933-3.932    l-8.344,7.042L12.8,62.203c-0.299,0.299-0.298,0.783,0.002,1.082l4.775,4.775c0.299,0.3,0.784,0.301,1.083,0.002l3.47-3.71    l0.967,0.966L12.274,76.141c-0.785,0.049-1.553,0.373-2.152,0.972l-0.033,0.032c-1.303,1.304-1.303,3.416,0,4.721l0.785,0.785    L8.515,85.01c-0.408,0.408-0.408,1.068,0,1.476l4.352,4.353c0.408,0.406,1.068,0.406,1.475,0l0.064-0.064l0.918,0.916    c0.438,0.438,1.146,0.438,1.584,0l0.741-0.741c0.437-0.437,0.595-1.302,0.349-1.933l-0.514-1.32l0.365-0.365l1.018,1.018    c0.244,0.244,0.64,0.244,0.884,0l4.686-4.686c0.243-0.244,0.243-0.641-0.001-0.885l-1.017-1.017l6.841-6.841    c0.508,1.199,2.105,1.959,3.383,0.768l2.584-2.414c0.893,0.104,1.758,0.496,2.443,1.182c0.551,0.551,0.913,1.217,1.086,1.92    l0.019,0.012l3.021,10.196c0.112,1.14,1.07,2.208,2.558,1.858l5.639-1.323c2.706-0.636,1.753-4.696-0.955-4.06l-0.149,0.033    l-2.677-9.035l1.309-6.504c2.501,1.201,5.619,0.723,7.719-1.375c2.642-2.643,2.715-6.9,0.105-9.51    c-0.389-0.389-0.814-0.719-1.267-0.988l1.15-1.073l17.339-17.451c-0.751-0.757-0.887-1.91,0.103-3.292    c2.034-2.843,3.723-3.938,5.13-4.57c0.801-0.359,1.947-0.605,2.467-1.376c0.447-0.665,6.003-10.884,6.003-10.884    c0.031-0.044,0.063-0.086,0.098-0.129c-0.052-0.123-0.128-0.239-0.228-0.339l-0.443-0.443l1.992-1.992    c0.407-0.407,0.407-1.067,0-1.475l-1.971-1.971C86.308,10.279,85.647,10.279,85.241,10.686z M13.177,80.326    c-0.39,0.39-1.021,0.391-1.412,0c-0.39-0.39-0.389-1.021,0-1.411c0.391-0.39,1.022-0.391,1.412-0.001    C13.567,79.305,13.566,79.937,13.177,80.326z M23.876,62.486l3.836-4.102l4.104-4.863l1.538,1.539l-8.452,8.452L23.876,62.486z     M32.847,74.674c-0.297,0.298-0.779,0.299-1.076,0c-0.297-0.296-0.297-0.779,0-1.076s0.779-0.297,1.076,0    C33.145,73.896,33.144,74.377,32.847,74.674z M55.136,65.076c-1.738,1.738-4.341,2.024-6.297,0.885l0.227-1.127    c1.19,0.83,2.6,1.219,4.004,1.168c1.037-0.039,0.98-1.596-0.057-1.557c-1.305,0.047-2.602-0.396-3.602-1.33l0.531-2.643    l3.932-3.67c0.496,0.236,0.96,0.56,1.367,0.967C57.216,59.744,57.195,63.017,55.136,65.076z M51.479,42.044L15.627,77.897    l-0.785-0.785c-0.204-0.204-0.427-0.376-0.664-0.516l35.78-35.78c0.08-0.081,0.213-0.082,0.295,0L51.479,42.044z M55.157,38.138    l22.996-22.995c0.491-0.492,1.229,0.246,0.736,0.737L55.896,38.875C55.403,39.367,54.666,38.63,55.157,38.138z M60.849,44.038    c-0.428-0.45-0.279-1.303,0.334-1.917c0.611-0.611,1.457-0.76,1.909-0.342L60.849,44.038z M63.936,40.93    c-0.414-0.453-0.265-1.297,0.345-1.906c0.606-0.606,1.443-0.758,1.898-0.351L63.936,40.93z M67.023,37.822    c-0.403-0.456-0.251-1.291,0.354-1.896c0.602-0.602,1.43-0.754,1.887-0.36L67.023,37.822z M70.112,34.713    c-0.391-0.457-0.238-1.284,0.363-1.885c0.596-0.596,1.417-0.752,1.876-0.37L70.112,34.713z M73.2,31.605    c-0.381-0.459-0.223-1.278,0.372-1.874c0.592-0.592,1.404-0.75,1.866-0.378L73.2,31.605z M76.288,28.498    c-0.368-0.462-0.209-1.273,0.381-1.863c0.588-0.587,1.393-0.747,1.855-0.388L76.288,28.498z M58.792,41.772    c-0.886,0.885-2.213-0.442-1.328-1.327L80.46,17.45c0.885-0.885,2.212,0.442,1.326,1.327L58.792,41.772z M79.377,25.388    c-0.356-0.463-0.196-1.265,0.39-1.851c0.582-0.582,1.379-0.745,1.843-0.396L79.377,25.388z M82.466,22.28    c-0.346-0.465-0.184-1.259,0.398-1.84c0.577-0.577,1.365-0.742,1.83-0.405L82.466,22.28z"/><path fill="#000000" d="M88.062,17.536c0,0-5.567,10.237-6.02,10.906c-1.363,2.027-3.726,0.538-7.611,5.968    c-1.519,2.123,0.658,2.652,1.343,2.747c1.463,0.202,2.759,0.595,4.657-1.951l11.008-15.218    C93.071,17.738,89.696,15.286,88.062,17.536z M90.306,19.298c-0.299,0.298-0.78,0.297-1.078,0c-0.297-0.297-0.297-0.779,0-1.077    c0.297-0.297,0.779-0.296,1.076,0C90.602,18.52,90.603,19.001,90.306,19.298z"/></g><path fill="#000000" d="M304.931,43.563c0,1.028,0.833,1.861,1.86,1.861s1.861-0.833,1.861-1.861c0-1.028-0.834-1.861-1.861-1.861   S304.931,42.536,304.931,43.563z M306.686,39.618h14.154c0,0,3.772,0.75,7.114,1.319h16.416c0.974,0,1.678,0.404,2.112,0.988   h10.217c2.197,0,2.197,3.297,0,3.297h-10.217c-0.435,0.585-1.139,0.989-2.112,0.989h-16.416c-2.331,0.548-7.114,1.318-7.114,1.318   h-14.154C301.41,47.53,301.41,39.618,306.686,39.618z M317.602,51.307v2.069c0,0.728-0.59,1.318-1.318,1.318h-1.713   c0.653-0.621,1.197-1.292,1.588-2.003C316.479,52.177,316.973,51.701,317.602,51.307z M349.938,37.706h7.291   c0.439,0,0.439,0.659,0,0.659h-0.366v2.581h0.366c0.439,0,0.439,0.66,0,0.66h-7.291c-0.44,0-0.44-0.66,0-0.66h0.346v-2.581h-0.346   C349.497,38.365,349.497,37.706,349.938,37.706z M356.203,38.365h-0.525v2.581h0.525V38.365z M355.02,38.365h-0.525v2.581h0.525   V38.365z M353.835,38.365h-0.525v2.581h0.525V38.365z M352.65,38.365h-0.524v2.581h0.524V38.365z M351.467,38.365h-0.525v2.581   h0.525V38.365z M327.845,18.44c0-0.364,0.296-0.66,0.66-0.66h2.176c0.363,0,0.659,0.295,0.659,0.66v19.628   c0,0.364-0.296,0.659-0.659,0.659h-2.176c-0.364,0-0.66-0.295-0.66-0.659V18.44z M326.856,36.46h-0.508h-3.087v0.429   c0,0.364-0.296,0.659-0.66,0.659h-4.634v1.08h-11.282c-3.29,0-4.945,2.534-4.945,4.946c0,2.412,1.655,4.946,4.945,4.946h14.234   l0.096-0.016c-0.038,0.574-0.454,1.098-0.966,1.188c-2.004,0.371-3.657,1.364-4.462,2.667c-1.094,2.007-3.614,3.751-6.398,4.927   c-3.264,1.396-6.215,2.991-6.631,5.965c-0.056,0.396-0.07,0.786-0.05,1.165c0.01,0.147-0.068,0.269-0.177,0.291   c-0.252,0.051-0.296-0.202-0.296-0.202c-0.081-0.394-0.129-0.798-0.142-1.213c-0.091-2.916,1.614-5.123,4.046-6.271   c2.759-1.35,3.906-3.551,3.816-6.427c-0.009-0.289-0.037-0.574-0.084-0.855h-1.553c-0.543,0-1.01-0.328-1.212-0.798   c-8.41,1.588-19.259,4.614-26.106,10.22c-12.499,10.235-19.245,18.609-19.245,18.609s-4.085,4.899-8.258,1.047   c-6.048-5.582-7.443-6.281-7.676-11.863c-0.233-5.583-0.931-17.215-0.931-17.215s-0.466-7.559,9.77-5.117   c10.235,2.443,25.243,2.488,31.171-0.232c5.091-2.337,10.817-9.305,13.881-9.305h6.045v-0.485h-0.315   c-0.365,0-0.66-0.295-0.66-0.659v-4.177c-1.351-0.499-1.351-2.584,0-3.083v-4.177c0-0.364,0.295-0.659,0.66-0.659h0.315v-2.291   c0-0.364,0.296-0.659,0.66-0.659h16.383c0.364,0,0.66,0.295,0.66,0.659v0.429h3.561L326.856,36.46z M348.961,35.877   c-2.826,0.373-6.031,0.583-9.428,0.583c-2.677,0-5.069-0.013-7.205-0.039V20.022c2.136-0.026,4.528-0.039,7.205-0.039   c3.396,0,6.602,0.21,9.428,0.583V35.877z M403.416,17.023c-0.011-1.763,2.627-1.779,2.639-0.021l0.067,11.216v11.215   c0,1.758-2.638,1.758-2.638,0l-36.377-5.515h-3.726l-5.157,0.912V21.613l5.157,0.912h3.726L403.416,17.023z M349.95,20.349   c0-0.728,0.591-1.319,1.319-1.319h4.646c0.729,0,1.319,0.591,1.319,1.319v15.676c0,0.729-0.591,1.319-1.319,1.319h-4.646   c-0.729,0-1.319-0.59-1.319-1.319V20.349z"/></g><text x="0" y="115" fill="#000000" font-size="5px" font-weight="bold" font-family="'Helvetica Neue', Helvetica, Arial-Unicode, Arial, Sans-serif">Created by Simon Child</text><text x="0" y="120" fill="#000000" font-size="5px" font-weight="bold" font-family="'Helvetica Neue', Helvetica, Arial-Unicode, Arial, Sans-serif">from the Noun Project</text></svg>