<svg id="79be3a86-bcb3-45be-9454-87f96808c5d5" data-name="smoke pellet" xmlns="http://www.w3.org/2000/svg" viewBox="0 0 317.98 317.98"><title>icon</title><path d="M33.7,84.65c-11.72,23.19,262.59,23.9,250.59,0A147.45,147.45,0,0,0,33.7,84.65Z" fill="#7daecd" stroke="#7daecd" stroke-linecap="round" stroke-linejoin="round" stroke-width="5"/><path d="M284.28,242.64C254,279.56,48.13,271.5,33.7,242.64l-0.2.12c26,42,72.46,67,125.49,67s99.51-25,125.49-67Z" fill="#7daecd" stroke="#7daecd" stroke-linecap="round" stroke-linejoin="round" stroke-width="5"/><path d="M27.73,228.8c15.08,28.85,230.9,36.92,262.52,0a146.38,146.38,0,0,0,16.16-66.44c0-22.9-6.38-46-15.7-65.32,12.5,23.9-274.87,21.61-262.66-1.58A144.32,144.32,0,0,0,27.73,228.8Z" fill="#7daecd" stroke="#7daecd" stroke-linecap="round" stroke-linejoin="round" stroke-width="5"/></svg>