<svg id="26c71f11-1e2c-4e98-a23f-1fe8d10e2252" data-name="smoke pellet" xmlns="http://www.w3.org/2000/svg" viewBox="0 0 636.3 636.3"><title>icon</title><circle cx="321.08" cy="300.29" r="126.53" fill="none" stroke="#7daecd" stroke-linejoin="round" stroke-width="20"/><circle cx="321.08" cy="300.29" r="104.12" fill="none" stroke="#7daecd" stroke-linejoin="round" stroke-width="5"/><circle cx="321.08" cy="300.29" r="86.29" fill="none" stroke="#7daecd" stroke-linejoin="round" stroke-width="21"/><circle cx="321.08" cy="300.29" r="55.93" fill="#7daecd" stroke="#7daecd" stroke-linejoin="round" stroke-width="21"/><path d="M407.38,200.59c81.34-.65,217.36,45.09,210.29,257.91-54.47-112-109.28-134.79-164.73-145.24C448.66,279.8,407.38,200.59,407.38,200.59Z" fill="none" stroke="#7daecd" stroke-linejoin="round" stroke-width="5"/><path d="M433.9,232c92,10.92,183.77,71.8,183.77,226.49-54.47-112-109.28-134.79-164.73-145.24C448.66,279.8,433.9,232,433.9,232Z" fill="#7daecd" stroke="#7daecd" stroke-linejoin="round" stroke-width="5"/><path d="M238.87,403.39c-81.24,3.93-219-36.3-220.51-249.23C77.29,263.84,133,284.45,188.8,292.66,194.44,325.91,238.87,403.39,238.87,403.39Z" fill="none" stroke="#7daecd" stroke-linejoin="round" stroke-width="5"/><path d="M211.1,373.07c-92.41-7.21-186.51-64.33-192.74-218.91C77.29,263.84,133,284.45,188.8,292.66,194.44,325.91,211.1,373.07,211.1,373.07Z" fill="#7daecd" stroke="#7daecd" stroke-linejoin="round" stroke-width="5"/></svg>