<?xml version="1.0" encoding="utf-8"?>
<!-- Generator: Adobe Illustrator 19.2.1, SVG Export Plug-In . SVG Version: 6.00 Build 0)  -->
<svg version="1.1" id="b7d4567b-0f56-4de9-856d-7b71fc2b3e51"
	 xmlns="http://www.w3.org/2000/svg" xmlns:xlink="http://www.w3.org/1999/xlink" x="0px" y="0px" viewBox="0 0 84.3 28.1"
	 style="enable-background:new 0 0 84.3 28.1;" xml:space="preserve">
<style type="text/css">
	.st0{fill:#7DAECD;}
	.st1{fill:none;}
</style>
<title>batarang-icon</title>
<path class="st0" d="M24.1,0.5c-0.5,1-0.9,2.1-1.1,3.2C14,8.3,6.9,15.8,2.9,25c-0.9,0.5-1.6,1.1-2.3,1.8C4.9,8.2,20.6,1.8,24.1,0.5
	 M24.7,0C24.7,0,4.5,5.6,0,28.1c0.8-1.2,1.9-2.2,3.2-2.9C7.1,16,14.3,8.4,23.3,3.9C23.5,2.6,24,1.2,24.7,0L24.7,0L24.7,0z"/>
<path class="st0" d="M60.2,0.5c3.5,1.2,19.1,7.7,23.5,26.3c-0.7-0.7-1.5-1.3-2.3-1.8c-4-9.2-11.1-16.7-20-21.2
	C61.1,2.6,60.7,1.5,60.2,0.5 M59.6,0c0.7,1.2,1.2,2.6,1.4,3.9c9,4.5,16.1,12,20.1,21.2c1.3,0.7,2.4,1.7,3.2,2.9
	C79.8,5.6,59.6,0,59.6,0L59.6,0z"/>
<circle class="st1" cx="50.5" cy="15" r="1.3"/>
<path class="st1" d="M46.3,16.1c0.2,0.1,0.4,0.2,0.6,0.2c0.7,0,1.3-0.6,1.3-1.3c0-0.7-0.6-1.3-1.3-1.3c-0.2,0-0.4,0.1-0.6,0.2
	C46.5,14.6,46.5,15.3,46.3,16.1z"/>
<path class="st1" d="M38,13.9c-0.2-0.1-0.4-0.2-0.6-0.2c-0.7,0-1.3,0.6-1.3,1.3c0,0.7,0.6,1.3,1.3,1.3l0,0c0.2,0,0.4-0.1,0.6-0.2
	c-0.1-0.4-0.1-0.8-0.1-1.2C37.9,14.6,37.9,14.2,38,13.9z"/>
<circle class="st1" cx="54.2" cy="14" r="1.3"/>
<circle class="st1" cx="33.8" cy="15" r="1.3"/>
<circle class="st1" cx="30.1" cy="14" r="1.3"/>
<path class="st0" d="M42.2,10.9l2.1,0.7c0-0.1,0.1-0.1,0.1-0.2c-1.4-0.8-3.1-0.8-4.5,0c0,0.1,0.1,0.2,0.1,0.2L42.2,10.9z"/>
<path class="st0" d="M45.6,15c0,0.5,0.2,0.9,0.7,1.1c0.1-0.4,0.2-0.8,0.1-1.2c0-0.3-0.1-0.7-0.1-1C45.9,14.1,45.6,14.5,45.6,15z"/>
<path class="st0" d="M38.7,15c0-0.5-0.3-0.9-0.7-1.1c-0.2,0.7-0.2,1.5,0,2.2C38.4,15.9,38.7,15.4,38.7,15z"/>
<path class="st0" d="M40.3,18.8c0.6,0.3,1.2,0.4,1.8,0.4h0.1C41.6,18.9,41,18.8,40.3,18.8z"/>
<path class="st0" d="M42.2,19.2c0.6,0,1.2-0.2,1.8-0.4C43.4,18.8,42.8,18.9,42.2,19.2z"/>
<path class="st0" d="M46.6,10.8c-1.9-1.7-2.3-1.3-2.3-1.3c0.4,0.6,0.4,1.3,0.1,1.9c0.9,0.6,1.6,1.5,1.9,2.6c0.2-0.1,0.4-0.2,0.6-0.2
	c0.7,0,1.3,0.6,1.3,1.3c0,0.7-0.6,1.3-1.3,1.3c-0.2,0-0.4-0.1-0.6-0.2c-0.3,1.2-1.2,2.2-2.3,2.7c3.1,0,6,3.6,6,3.6
	c0.9-8.1,8-4.5,8-4.5c12.6-5.3,16.6,5,16.6,5c2.3,0.4,4.5,1.2,6.5,2.3C77.1,16,70,8.4,61,3.9C62.3,12.3,48.9,12.7,46.6,10.8z
	 M50.5,16.2c-0.7,0-1.3-0.6-1.3-1.3s0.6-1.3,1.3-1.3c0.7,0,1.3,0.6,1.3,1.3v0C51.8,15.7,51.2,16.2,50.5,16.2z M54.2,15.3
	c-0.7,0-1.3-0.6-1.3-1.3s0.6-1.3,1.3-1.3c0.7,0,1.3,0.6,1.3,1.3v0C55.4,14.7,54.9,15.3,54.2,15.3z"/>
<polygon class="st0" points="42.2,19.2 42.2,19.2 42.2,19.2 "/>
<path class="st0" d="M26.3,17.9c0,0,7.2-3.6,8,4.5c0,0,2.9-3.5,6-3.6c-1.1-0.5-2-1.5-2.3-2.7c-0.2,0.1-0.4,0.2-0.6,0.2
	c-0.7,0-1.3-0.6-1.3-1.3c0-0.7,0.6-1.3,1.3-1.3l0,0c0.2,0,0.4,0.1,0.6,0.2c0.3-1.1,1-2,1.9-2.6c-0.4-0.6-0.3-1.3,0.1-1.9
	c0,0-0.4-0.3-2.3,1.3c-2.3,2-15.7,1.5-14.4-6.8c-9,4.5-16.1,12-20.1,21.2c2-1.1,4.2-1.9,6.5-2.3C9.7,22.9,13.7,12.6,26.3,17.9z
	 M33.8,13.7c0.7,0,1.3,0.6,1.3,1.3s-0.6,1.3-1.3,1.3c-0.7,0-1.3-0.6-1.3-1.3v0C32.5,14.3,33.1,13.7,33.8,13.7
	C33.8,13.7,33.8,13.7,33.8,13.7L33.8,13.7z M30.1,12.8c0.7,0,1.3,0.6,1.3,1.3c0,0.7-0.6,1.3-1.3,1.3s-1.3-0.6-1.3-1.3l0,0
	C28.8,13.4,29.4,12.8,30.1,12.8C30.1,12.8,30.1,12.8,30.1,12.8z"/>
<path class="st0" d="M46.3,16.1c-0.6-0.3-0.8-1.1-0.5-1.7c0.1-0.2,0.3-0.4,0.5-0.5c-0.3-1.1-0.9-2-1.9-2.5c0,0.1-0.1,0.1-0.1,0.2
	l-2.1-0.6l-2.1,0.7c0-0.1-0.1-0.2-0.1-0.2c-1,0.6-1.7,1.5-1.9,2.6c0.6,0.3,0.8,1.1,0.5,1.7c-0.1,0.2-0.3,0.4-0.5,0.5
	c0.3,1.2,1.2,2.1,2.3,2.7c0.6,0,1.3,0.3,1.9,0.3l0,0c0.6,0,1.2-0.3,1.8-0.3C45.1,18.2,45.9,17.3,46.3,16.1z"/>
<circle class="st0" cx="42.1" cy="15" r="4.5"/>
</svg>
