<svg id="_800fe379-6a37-4aa1-835c-ee54e9d3b99e" data-name="800fe379-6a37-4aa1-835c-ee54e9d3b99e" xmlns="http://www.w3.org/2000/svg" viewBox="0 0 81.94 38.83"><defs><style>.cls-1{fill:#ffcb12;}</style></defs><title>windshield-wiper-yellow</title><path class="cls-1" d="M81.93,12.1a1,1,0,0,0-.45-.62,77.21,77.21,0,0,0-81,0,1,1,0,0,0-.33,1.37h0l15.56,25.5a1,1,0,0,0,1.37.33h0a45.45,45.45,0,0,1,47.69,0,1,1,0,0,0,1.38-.32h0l15.62-25.5A1,1,0,0,0,81.93,12.1Zm-17,24.31a47.9,47.9,0,0,0-15.6-5.72L59.66,12.81a1,1,0,0,0-1.49-1.34,1,1,0,0,0-.17.27v.07L47.22,30.34a47,47,0,0,0-22.13,2.32L36.55,12.81a1,1,0,1,0-1.69-1.07h0v.07L22.2,33.66v.16A48.71,48.71,0,0,0,17,36.41L2.32,12.67a75.18,75.18,0,0,1,77.22,0Z" transform="translate(0 0)"/></svg>