<svg id="800fe379-6a37-4aa1-835c-ee54e9d3b99e" data-name="Calque 1" xmlns="http://www.w3.org/2000/svg" viewBox="0 0 81.95 38.83">
  <title>windshield-wiper</title>
  <path d="M81.93,12.1a1,1,0,0,0-.45-0.62,77.19,77.19,0,0,0-81,0,1,1,0,0,0-.33,1.37h0L15.71,38.35a1,1,0,0,0,1.37.33h0a45.44,45.44,0,0,1,47.69,0,1,1,0,0,0,1.38-.32h0L81.77,12.86A1,1,0,0,0,81.93,12.1Zm-17,24.31a47.7,47.7,0,0,0-15.6-5.72L59.66,12.81A1,1,0,1,0,58,11.74l0,0.07L47.22,30.34a47,47,0,0,0-22.13,2.32L36.55,12.81a1,1,0,0,0-1.69-1.07l0,0.07L22.2,33.66a0.94,0.94,0,0,0,0,.16,48.15,48.15,0,0,0-5.22,2.59L2.32,12.67a75.19,75.19,0,0,1,77.22,0Z"/>
</svg>
