<svg id="a5d923d8-03c3-4da0-a418-8a900e47a3ea" xmlns="http://www.w3.org/2000/svg" viewBox="0 0 46.79 33.26"><defs><style>.cls-1{fill:#eecb12;}</style></defs><title>headlights-yellow</title><path class="cls-1" d="M16.53,0a18.07,18.07,0,0,0-2.44.16C7.43,1.06,0,7.76,0,16.77S6.27,30.92,13.09,32.62c5.23,1.3,10.39.64,13-2.31a5.36,5.36,0,0,0,1.25-3.07,2.67,2.67,0,0,0,0-.4L27.28,6A4.21,4.21,0,0,0,26,3.13a8.68,8.68,0,0,0-3-2,15.42,15.42,0,0,0-4.12-1A20.44,20.44,0,0,0,16.53,0Zm0,2a14.56,14.56,0,0,1,2.09.09,13.5,13.5,0,0,1,3.6.91,7,7,0,0,1,2.34,1.5A2.27,2.27,0,0,1,25.28,6l.12,20.78c-.14,2-1.4,3.21-3.56,3.94a15.41,15.41,0,0,1-8.25,0C7.48,29.16,2.08,23.63,2,16.88S8.43,3,14.34,2.16A17.92,17.92,0,0,1,16.53,2ZM30.08,7.28a1,1,0,0,0-.58,1.29v0a1,1,0,0,0,1.3.57h0l15.23.78A1,1,0,1,0,45.53,8L30.29,7.22Zm0,9.41a1,1,0,1,0,.74,1.87h0l15.23.78a1,1,0,0,0,.7-1.23,1,1,0,0,0-1.22-.7l-15.24-.78Zm0,9.41A1,1,0,1,0,30.82,28h0l15.23.78a1,1,0,0,0,.7-1.23,1,1,0,0,0-1.22-.7L30.29,26Z" transform="translate(0 0)"/></svg>